# xmcd
#
# Track frame offsets:
#	300
#	12302
#	30200
#	47705
#	66111
#	76035
#	95658
#	108862
#	125016
#	142794
#	159489
#	169045
#
# Disc length: 2427 seconds
#
# Revision: 1
# Processed by: cddbd v1.5.2PL0 Copyright (c) Steve Scherf et al.
# Submitted via: audiograbber 1.83.01
#
DISCID=8b09770c
DTITLE=Robin Clayton - Heritage
DYEAR=2004
DGENRE=Country
TTITLE0=Uncle Zeb
TTITLE1=The Lost Won't Go To Heaven
TTITLE2=Preacher Jim
TTITLE3=God's Not Finished With Me Yet
TTITLE4=He Gives My Heart A Song
TTITLE5=All Of The Flowers
TTITLE6=Why?
TTITLE7=It'll Be Heaven
TTITLE8=Heritage
TTITLE9=All Alone Inside A Crowd
TTITLE10=I'll Sing Praise
TTITLE11=A Love You Cannot Lose
EXTD=Robin Clayton Music BMI\nP.O. Box 142\nWalnut, MS  38683\n\nwww.robinclayt
EXTD=on.com
EXTT0=
EXTT1=
EXTT2=
EXTT3=
EXTT4=
EXTT5=
EXTT6=
EXTT7=
EXTT8=
EXTT9=
EXTT10=
EXTT11=
PLAYORDER=
